<?xml version="1.0" encoding="utf-8"?>
<!-- Generator: Adobe Illustrator 19.1.0, SVG Export Plug-In . SVG Version: 6.00 Build 0)  -->
<svg version="1.1" id="Layer_1" xmlns="http://www.w3.org/2000/svg" xmlns:xlink="http://www.w3.org/1999/xlink" x="0px" y="0px"
	 viewBox="0 0 432 281" style="enable-background:new 0 0 432 281;" xml:space="preserve">
<style type="text/css">
	.st0{fill:#231F20;}
</style>
<g id="XMLID_7_">
	<g id="XMLID_6_">
		<path id="XMLID_19_" class="st0" d="M211.5,194.2c-20.4,0-36.9,16.5-36.9,36.9c0,20.4,16.5,36.9,36.9,36.9s36.9-16.5,36.9-36.9
			C248.5,210.7,231.9,194.2,211.5,194.2z M211.5,255.8c-13.7,0-24.7-11.1-24.7-24.7c0-13.7,11.1-24.7,24.7-24.7s24.7,11.1,24.7,24.7
			C236.2,244.8,225.2,255.8,211.5,255.8z"/>
		<path id="XMLID_16_" class="st0" d="M167,67.6c-33.5,0-60.6,27.1-60.6,60.6c0,33.5,27.1,60.6,60.6,60.6s60.6-27.1,60.6-60.6
			C227.6,94.7,200.4,67.6,167,67.6z M167,175.8c-26.3,0-47.7-21.3-47.7-47.7c0-26.3,21.3-47.7,47.7-47.7s47.7,21.3,47.7,47.7
			C214.7,154.5,193.3,175.8,167,175.8z"/>
	</g>
	<path id="XMLID_1_" class="st0" d="M338.8,186.1h-12.9v-70.3c0-21.4-12.5-35.4-32.3-35.4c-19.6,0-32.3,17.6-32.3,34.9v70.7h-12.9
		V19.1h12.9v63.1c7.9-9,19.5-14.6,32.3-14.6c25.8,0,44.1,17.6,45.1,45.4c0,1.2,0.1,2.4,0.1,3.6V186.1z M375.7,80.5h24.8V67.6h-24.8
		V19.1h-12.9l0,132.1c0.1,20.8,16.9,37.6,37.7,37.6v-12.9c-13.9,0-24.8-10.8-24.8-24.7V80.5z M44.5,186.1H31.6V19.1h12.9V186.1z
		 M85.5,186.1H72.5V67.6h12.9V186.1z"/>
</g>
</svg>
